# xmcd CD database file
#
# Track frame offsets:
#	150
#	33866
#	65631
#	79285
#	108682
#	125680
#	141424
#	166781
#	188515
#	202030
#	211922
#	224461
#	237418
#	247728
#
# Disc length: 3449 seconds
#
# Revision: 0
# Processed by: cddbd v1.5.2PL0 Copyright (c) Steve Scherf et al.
# Submitted via: jetAudio 7
#
DISCID=cf0d770e
DTITLE=Xue wei and Xu zhong - Violin Classics in Red China
DYEAR=1900
DGENRE=Classical
TTITLE0=The Golden Furnace
TTITLE1=The Sun Shines over Taxkorgan
TTITLE2=Lapping Waves of the Lake Hong
TTITLE3=Fisherman's Song for Harvest
TTITLE4=Red Flowers on the Moutain
TTITLE5=Morning in Miao Mountain
TTITLE6=Zhuang's Brocade to Chairman MAO
TTITLE7=Why are the Flowers Fiery Red
TTITLE8=Jasmine
TTITLE9=Lullaby
TTITLE10=Joyful New Year
TTITLE11=Overture of Spring Festival Suite
TTITLE12=A Pleasant Night
TTITLE13=Kangding Love Song
EXTD=
EXTT0=
EXTT1=
EXTT2=
EXTT3=
EXTT4=
EXTT5=
EXTT6=
EXTT7=
EXTT8=
EXTT9=
EXTT10=
EXTT11=
EXTT12=
EXTT13=
PLAYORDER=
